<svg width="741" height="877" viewBox="0 0 741 877" fill="none" xmlns="http://www.w3.org/2000/svg">
<path d="M17.4047 359.189C99.9048 258.189 252.784 317.214 268.905 142.958C279.405 29.4582 538.905 111.958 538.905 111.958L1012.9 592.189C1012.9 592.189 901.905 802.189 792.405 697.189C682.905 592.189 557.404 649.689 505.905 786.698C454.405 923.706 285.905 886.706 174.405 786.698C62.9047 686.689 104.405 689.189 139.405 575.689C174.405 462.189 -65.0954 460.189 17.4047 359.189Z" fill="black"/>
<path d="M17.4047 262.189C99.9048 161.189 252.784 220.214 268.905 45.9582C279.405 -67.5418 538.905 14.9582 538.905 14.9582L1012.9 495.189C1012.9 495.189 901.905 705.189 792.405 600.189C682.905 495.189 557.404 552.689 505.905 689.698C454.405 826.706 285.905 789.706 174.405 689.698C62.9047 589.689 104.405 592.189 139.405 478.689C174.405 365.189 -65.0954 363.189 17.4047 262.189Z" fill="#8BB9FF"/>
</svg>
